<?xml version="1.0" encoding="UTF-8"?>
<svg id="Layer_1" data-name="Layer 1" xmlns="http://www.w3.org/2000/svg" viewBox="0 0 615.42 306.91">
  <defs>
    <style>
      .cls-1 {
        fill: #fff;
        stroke: #fff;
        stroke-miterlimit: 10;
      }
    </style>
  </defs>
  <g id="WTEXT">
    <g id="Sun">
      <path class="cls-1" d="M76.48,167.52c9.11,0,16.51-1.03,22.19-3.08,10.78-3.93,16.17-11.23,16.17-21.9,0-6.23-2.68-11.06-8.02-14.47-5.35-3.33-13.75-6.28-25.2-8.84l-19.56-4.48c-19.22-4.44-32.52-9.27-39.87-14.47C9.75,91.57,3.52,77.94,3.52,59.42c0-16.9,6.02-30.96,18.06-42.14C33.61,6.09,51.29.5,74.61.5c19.48,0,36.08,5.27,49.84,15.82,13.74,10.54,20.96,25.85,21.62,45.91h-37.11c-.67-11.36-5.51-19.43-14.54-24.21-6.02-3.15-13.5-4.74-22.45-4.74-9.95,0-17.89,2.05-23.82,6.15-5.93,4.1-8.9,9.82-8.9,17.16,0,6.75,2.93,11.79,8.78,15.11,3.76,2.22,11.78,4.83,24.07,7.81l31.84,7.81c13.95,3.42,24.49,7.98,31.59,13.71,11.03,8.88,16.55,21.73,16.55,38.55s-6.46,31.57-19.37,42.97c-12.91,11.4-31.16,17.1-54.73,17.1s-43-5.61-56.8-16.85C7.39,171.58.5,156.15.5,136.51h36.86c1.17,8.62,3.47,15.07,6.9,19.34,6.27,7.78,17.01,11.66,32.22,11.67h0Z"/>
      <path class="cls-1" d="M265.43,175.07c-.34.43-1.17,1.71-2.51,3.84-1.33,2.13-2.93,4.01-4.77,5.63-5.6,5.13-11.01,8.62-16.24,10.5-5.23,1.88-11.34,2.82-18.37,2.82-20.23,0-33.85-7.43-40.87-22.29-3.93-8.2-5.89-20.28-5.89-36.24V55.18h36.61v84.16c0,7.94.91,13.92,2.76,17.93,3.26,7.09,9.65,10.63,19.18,10.63,12.2,0,20.56-5.04,25.07-15.11,2.34-5.46,3.51-12.68,3.51-21.65V55.18h36.23v139.61h-34.73v-19.73h0Z"/>
      <path class="cls-1" d="M398.96,82.21c-12.12,0-20.43,5.25-24.95,15.76-2.34,5.55-3.51,12.64-3.51,21.26v75.57h-35.6V55.44h34.48v20.37c4.6-7.18,8.94-12.34,13.04-15.5,7.35-5.63,16.67-8.45,27.96-8.45,14.12,0,25.68,3.78,34.66,11.33,8.99,7.56,13.48,20.09,13.48,37.59v94.01h-36.61v-84.92c0-7.35-.97-12.98-2.89-16.9-3.51-7.18-10.2-10.76-20.06-10.76Z"/>
    </g>
    <path class="cls-1" d="M613.98,180.68l-42.01,6.95-40.86-51.39-12.04,17.34,6.61,41.71-34.19,5.66-28.32-178.62,34.19-5.66,15.31,96.54,35.44-57.02,43.11-7.13-38.49,58.4,61.24,73.23h0Z"/>
    <g>
      <path class="cls-1" d="M38.24,276.09h-15.25v28.31h-14.43v-72.19h34.66c4.95.09,8.76.72,11.43,1.86,2.67,1.14,4.93,2.82,6.78,5.04,1.54,1.83,2.75,3.85,3.64,6.07.9,2.22,1.34,4.75,1.34,7.59,0,3.43-.85,6.8-2.54,10.12-1.7,3.32-4.49,5.66-8.39,7.03,3.26,1.34,5.57,3.24,6.92,5.71,1.36,2.47,2.04,6.23,2.04,11.29v4.85c0,3.3.13,5.54.39,6.71.39,1.86,1.28,3.23,2.69,4.11v1.81h-16.25c-.44-1.6-.76-2.89-.96-3.87-.39-2.02-.6-4.1-.62-6.22l-.09-6.71c-.07-4.6-.89-7.67-2.47-9.21-1.59-1.53-4.55-2.3-8.89-2.3h.02ZM47.21,262.96c2.94-1.37,4.41-4.08,4.41-8.13,0-4.37-1.42-7.31-4.26-8.81-1.6-.85-3.99-1.28-7.19-1.28h-17.16v19.39h16.73c3.32,0,5.82-.39,7.47-1.17h0Z"/>
      <path class="cls-1" d="M122.95,306.4c-10.1,0-17.81-2.8-23.15-8.43-7.16-6.89-10.74-16.81-10.74-29.77s3.58-23.15,10.74-29.77c5.34-5.61,13.06-8.43,23.15-8.43s17.81,2.81,23.15,8.43c7.12,6.63,10.69,16.55,10.69,29.77s-3.57,22.89-10.69,29.77c-5.34,5.62-13.06,8.43-23.15,8.43ZM136.9,287.01c3.42-4.41,5.13-10.67,5.13-18.81s-1.72-14.36-5.15-18.78c-3.43-4.42-8.08-6.64-13.93-6.64s-10.51,2.2-14,6.61c-3.48,4.41-5.23,10.68-5.23,18.81s1.75,14.4,5.23,18.81c3.48,4.41,8.15,6.61,14,6.61s10.5-2.2,13.95-6.61h0Z"/>
      <path class="cls-1" d="M212.89,304.4h-32.02v-72.19h34.32c8.66.13,14.79,2.69,18.41,7.69,2.17,3.07,3.26,6.74,3.26,11.02s-1.08,7.95-3.26,10.63c-1.22,1.5-3,2.87-5.37,4.11,3.61,1.34,6.34,3.46,8.17,6.37,1.84,2.91,2.75,6.43,2.75,10.58s-1.06,8.11-3.16,11.5c-1.34,2.25-3.02,4.15-5.03,5.68-2.27,1.77-4.94,2.97-8.03,3.63-3.09.65-6.44.98-10.04.98h0ZM219.89,258.85c1.92-1.17,2.88-3.28,2.88-6.32,0-3.36-1.28-5.58-3.83-6.66-2.21-.75-5.02-1.12-8.43-1.12h-15.53v15.92h17.35c3.1,0,5.62-.61,7.58-1.81h0ZM212.55,272.61h-17.6v19.25h17.35c3.1,0,5.51-.42,7.24-1.28,3.13-1.57,4.7-4.57,4.7-9.01,0-3.75-1.52-6.34-4.56-7.74-1.7-.78-4.08-1.19-7.14-1.22h0Z"/>
      <path class="cls-1" d="M295.35,306.4c-10.1,0-17.81-2.8-23.15-8.43-7.16-6.89-10.74-16.81-10.74-29.77s3.58-23.15,10.74-29.77c5.34-5.61,13.06-8.43,23.15-8.43s17.81,2.81,23.15,8.43c7.12,6.63,10.69,16.55,10.69,29.77s-3.57,22.89-10.69,29.77c-5.34,5.62-13.06,8.43-23.15,8.43ZM309.3,287.01c3.42-4.41,5.13-10.67,5.13-18.81s-1.72-14.36-5.15-18.78-8.08-6.64-13.93-6.64-10.51,2.2-14,6.61c-3.48,4.41-5.23,10.68-5.23,18.81s1.75,14.4,5.23,18.81c3.48,4.41,8.15,6.61,14,6.61s10.5-2.2,13.95-6.61h0Z"/>
      <path class="cls-1" d="M404.37,232.21v12.78h-21.14v59.41h-14.86v-59.41h-21.24v-12.78h57.24Z"/>
      <path class="cls-1" d="M424.42,232.21h14.67v72.19h-14.67v-72.19Z"/>
      <path class="cls-1" d="M515.27,299.01c-5.27,4.93-12.02,7.4-20.23,7.4-10.16,0-18.15-3.33-23.97-9.99-5.82-6.7-8.73-15.87-8.73-27.53,0-12.6,3.31-22.31,9.93-29.14,5.76-5.94,13.07-8.92,21.95-8.92,11.89,0,20.58,3.99,26.08,11.95,3.04,4.47,4.67,8.96,4.89,13.47h-14.77c-.96-3.46-2.19-6.07-3.69-7.84-2.69-3.14-6.66-4.7-11.94-4.7s-9.61,2.21-12.7,6.64c-3.1,4.42-4.65,10.68-4.65,18.78s1.64,14.16,4.92,18.19c3.27,4.03,7.43,6.05,12.49,6.05s9.12-1.73,11.84-5.19c1.5-1.86,2.75-4.65,3.74-8.38h14.62c-1.28,7.87-4.54,14.26-9.78,19.19h0Z"/>
      <path class="cls-1" d="M574.53,293.96c3.48,0,6.31-.39,8.48-1.17,4.12-1.5,6.18-4.29,6.18-8.38,0-2.38-1.02-4.23-3.07-5.54-2.05-1.28-5.25-2.4-9.63-3.38l-7.48-1.71c-7.35-1.7-12.44-3.54-15.25-5.54-4.77-3.33-7.14-8.54-7.14-15.62,0-6.46,2.3-11.84,6.91-16.12,4.6-4.28,11.36-6.41,20.28-6.41,7.44,0,13.8,2.01,19.06,6.04,5.25,4.03,8.01,9.88,8.27,17.56h-14.19c-.26-4.34-2.11-7.42-5.56-9.26-2.3-1.21-5.16-1.81-8.58-1.81-3.8,0-6.84.78-9.11,2.35-2.27,1.57-3.41,3.75-3.41,6.56,0,2.58,1.12,4.51,3.36,5.78,1.43.85,4.51,1.84,9.21,2.98l12.18,2.98c5.34,1.3,9.36,3.05,12.08,5.24,4.22,3.39,6.33,8.31,6.33,14.74s-2.47,12.07-7.41,16.43c-4.93,4.35-11.92,6.54-20.93,6.54s-16.45-2.14-21.72-6.44c-5.27-4.29-7.91-10.19-7.91-17.7h14.1c.44,3.3,1.33,5.76,2.63,7.4,2.4,2.97,6.5,4.46,12.32,4.46h.02Z"/>
    </g>
  </g>
</svg>