<?xml version="1.0" encoding="UTF-8"?>
<svg id="Layer_1" data-name="Layer 1" xmlns="http://www.w3.org/2000/svg" viewBox="0 0 779.79 204.54">
  <defs>
    <style>
      .cls-1 {
        stroke-width: .25px;
      }

      .cls-1, .cls-2 {
        fill: none;
      }

      .cls-1, .cls-2, .cls-3 {
        stroke: #fff;
        stroke-miterlimit: 10;
      }

      .cls-4 {
        stroke-width: 0px;
      }

      .cls-4, .cls-3 {
        fill: #fff;
      }
    </style>
  </defs>
  <g id="WTEXT">
    <g id="Sun">
      <path class="cls-3" d="M420.72,111.63c6.06,0,10.98-.68,14.77-2.05,7.17-2.61,10.76-7.47,10.76-14.57,0-4.15-1.78-7.36-5.34-9.63-3.56-2.21-9.15-4.18-16.77-5.88l-13.01-2.98c-12.79-2.95-21.64-6.17-26.53-9.63-8.29-5.8-12.43-14.86-12.43-27.18,0-11.25,4-20.6,12.02-28.04,8.01-7.44,19.77-11.16,35.29-11.16,12.96,0,24.01,3.51,33.16,10.52,9.15,7.02,13.95,17.2,14.39,30.55h-24.69c-.45-7.56-3.67-12.93-9.68-16.11-4-2.1-8.98-3.15-14.94-3.15-6.62,0-11.9,1.36-15.85,4.09-3.95,2.73-5.92,6.54-5.92,11.42,0,4.49,1.95,7.84,5.84,10.06,2.5,1.48,7.84,3.21,16.02,5.2l21.19,5.2c9.29,2.28,16.29,5.31,21.02,9.12,7.34,5.91,11.01,14.46,11.01,25.65s-4.3,21.01-12.89,28.59c-8.59,7.59-20.73,11.38-36.41,11.38s-28.61-3.74-37.79-11.21c-9.18-7.47-13.76-17.74-13.76-30.81h24.53c.78,5.74,2.31,10.03,4.59,12.87,4.17,5.17,11.32,7.76,21.44,7.76h0Z"/>
      <path class="cls-3" d="M546.44,116.65c-.22.29-.78,1.14-1.67,2.56s-1.95,2.67-3.17,3.75c-3.72,3.41-7.33,5.74-10.8,6.99-3.48,1.25-7.55,1.88-12.22,1.88-13.46,0-22.52-4.95-27.2-14.83-2.61-5.45-3.92-13.5-3.92-24.12v-56h24.36v56c0,5.28.61,9.26,1.84,11.93,2.17,4.72,6.42,7.07,12.76,7.07,8.12,0,13.68-3.35,16.68-10.06,1.56-3.63,2.33-8.44,2.33-14.4v-50.54h24.11v92.89h-23.11v-13.12h0Z"/>
      <path class="cls-3" d="M635.29,54.87c-8.06,0-13.6,3.5-16.6,10.48-1.56,3.7-2.33,8.41-2.33,14.15v50.28h-23.69V37.06h22.94v13.55c3.06-4.77,5.95-8.21,8.68-10.31,4.89-3.75,11.09-5.62,18.6-5.62,9.4,0,17.08,2.52,23.06,7.54,5.98,5.03,8.97,13.36,8.97,25.01v62.56h-24.36v-56.5c0-4.89-.64-8.64-1.92-11.25-2.33-4.77-6.78-7.16-13.35-7.16Z"/>
    </g>
    <path class="cls-3" d="M778.36,120.39l-27.95,4.63-27.19-34.2-8.01,11.54,4.4,27.75-22.75,3.76-18.84-118.85,22.75-3.76,10.18,64.24,23.58-37.94,28.68-4.75-25.61,38.86,40.75,48.72h0Z"/>
    <g>
      <path class="cls-3" d="M395.28,183.87h-10.14v18.83h-9.6v-48.03h23.06c3.29.06,5.83.48,7.6,1.24,1.78.76,3.28,1.88,4.51,3.35,1.02,1.21,1.83,2.56,2.42,4.04.6,1.48.89,3.16.89,5.05,0,2.28-.56,4.52-1.69,6.73-1.13,2.21-2.99,3.76-5.58,4.68,2.17.89,3.71,2.16,4.61,3.8.9,1.64,1.36,4.15,1.36,7.51v3.23c0,2.2.08,3.68.26,4.47.26,1.24.85,2.15,1.79,2.74v1.2h-10.81c-.3-1.07-.51-1.92-.64-2.57-.26-1.35-.4-2.73-.41-4.14l-.06-4.47c-.04-3.06-.59-5.11-1.64-6.13-1.06-1.02-3.03-1.53-5.92-1.53h.01ZM401.24,175.14c1.95-.91,2.94-2.72,2.94-5.41,0-2.91-.94-4.87-2.84-5.86-1.07-.56-2.66-.85-4.78-.85h-11.42v12.9h11.13c2.21,0,3.87-.26,4.97-.78h0Z"/>
      <path class="cls-3" d="M451.64,204.04c-6.72,0-11.85-1.87-15.4-5.61-4.76-4.59-7.15-11.19-7.15-19.81s2.38-15.4,7.15-19.81c3.55-3.74,8.69-5.61,15.4-5.61s11.85,1.87,15.4,5.61c4.74,4.41,7.11,11.01,7.11,19.81s-2.37,15.23-7.11,19.81c-3.55,3.74-8.69,5.61-15.4,5.61ZM460.92,191.14c2.27-2.93,3.41-7.1,3.41-12.51s-1.14-9.55-3.43-12.5c-2.28-2.94-5.38-4.41-9.27-4.41s-7,1.47-9.31,4.4c-2.32,2.93-3.48,7.11-3.48,12.51s1.16,9.58,3.48,12.51,5.42,4.4,9.31,4.4,6.98-1.47,9.28-4.4h0Z"/>
      <path class="cls-3" d="M511.48,202.7h-21.31v-48.03h22.84c5.76.09,9.84,1.79,12.25,5.12,1.45,2.04,2.17,4.48,2.17,7.33s-.72,5.29-2.17,7.07c-.81,1-2,1.91-3.57,2.74,2.4.89,4.22,2.3,5.44,4.24s1.83,4.28,1.83,7.04-.7,5.4-2.1,7.65c-.89,1.5-2.01,2.76-3.35,3.78-1.51,1.18-3.29,1.98-5.34,2.41-2.05.43-4.28.65-6.68.65h0ZM516.14,172.4c1.28-.78,1.92-2.18,1.92-4.2,0-2.24-.85-3.71-2.55-4.43-1.47-.5-3.34-.75-5.61-.75h-10.33v10.59h11.55c2.06,0,3.74-.4,5.04-1.2h0ZM511.26,181.55h-11.71v12.81h11.55c2.06,0,3.67-.28,4.82-.85,2.08-1.04,3.13-3.04,3.13-5.99,0-2.5-1.01-4.22-3.03-5.15-1.13-.52-2.71-.79-4.75-.81h0Z"/>
      <path class="cls-3" d="M566.35,204.04c-6.72,0-11.85-1.87-15.4-5.61-4.76-4.59-7.15-11.19-7.15-19.81s2.38-15.4,7.15-19.81c3.55-3.74,8.69-5.61,15.4-5.61s11.85,1.87,15.4,5.61c4.74,4.41,7.11,11.01,7.11,19.81s-2.37,15.23-7.11,19.81c-3.55,3.74-8.69,5.61-15.4,5.61ZM575.63,191.14c2.27-2.93,3.41-7.1,3.41-12.51s-1.14-9.55-3.43-12.5c-2.28-2.94-5.38-4.41-9.27-4.41s-7,1.47-9.31,4.4-3.48,7.11-3.48,12.51,1.16,9.58,3.48,12.51c2.32,2.93,5.42,4.4,9.31,4.4s6.98-1.47,9.28-4.4h0Z"/>
      <path class="cls-3" d="M638.89,154.67v8.5h-14.06v39.53h-9.89v-39.53h-14.13v-8.5h38.08Z"/>
      <path class="cls-3" d="M652.23,154.67h9.76v48.03h-9.76v-48.03Z"/>
      <path class="cls-3" d="M712.68,199.12c-3.51,3.28-8,4.92-13.46,4.92-6.76,0-12.08-2.21-15.95-6.65-3.87-4.45-5.81-10.56-5.81-18.32,0-8.38,2.2-14.85,6.61-19.39,3.83-3.95,8.7-5.93,14.61-5.93,7.91,0,13.7,2.65,17.35,7.95,2.02,2.98,3.1,5.96,3.26,8.96h-9.83c-.64-2.3-1.46-4.04-2.46-5.21-1.79-2.09-4.43-3.13-7.95-3.13s-6.39,1.47-8.45,4.41c-2.06,2.94-3.09,7.11-3.09,12.5s1.09,9.42,3.27,12.1c2.18,2.68,4.95,4.03,8.31,4.03s6.07-1.15,7.88-3.46c1-1.24,1.83-3.1,2.49-5.57h9.73c-.85,5.24-3.02,9.49-6.5,12.77h0Z"/>
      <path class="cls-3" d="M752.1,195.76c2.32,0,4.2-.26,5.64-.78,2.74-1,4.11-2.86,4.11-5.57,0-1.59-.68-2.81-2.04-3.68-1.36-.85-3.5-1.6-6.41-2.25l-4.97-1.14c-4.89-1.13-8.27-2.36-10.14-3.68-3.17-2.21-4.75-5.68-4.75-10.39,0-4.3,1.53-7.88,4.6-10.72,3.06-2.85,7.56-4.27,13.49-4.27,4.95,0,9.18,1.34,12.68,4.02,3.5,2.68,5.33,6.58,5.5,11.68h-9.44c-.17-2.89-1.4-4.94-3.7-6.16-1.53-.8-3.43-1.2-5.71-1.2-2.53,0-4.55.52-6.06,1.56-1.51,1.04-2.27,2.5-2.27,4.36,0,1.72.74,3,2.23,3.84.95.56,3,1.23,6.12,1.98l8.1,1.98c3.55.87,6.23,2.03,8.04,3.49,2.81,2.26,4.21,5.53,4.21,9.81s-1.64,8.03-4.93,10.93c-3.28,2.9-7.93,4.35-13.92,4.35s-10.94-1.43-14.45-4.28c-3.51-2.86-5.27-6.78-5.27-11.78h9.38c.3,2.2.88,3.83,1.75,4.92,1.6,1.98,4.33,2.97,8.2,2.97h.01Z"/>
    </g>
  </g>
  <path class="cls-1" d="M196.31,52.03c-1.84,1.14-3.34,2.84-4.81,4.5-3.14,3.53-6.63,6.54-9.94,9.81-2.45,2.42-4.96,4.78-7.42,7.2-3.13,3.09-6.23,6.22-9.35,9.31-2.47,2.45-4.94,4.9-7.43,7.32-2.43,2.37-4.95,4.61-7.29,7.09-2.26,2.39-4.63,4.63-6.9,7.02-3.94,4.15-7.86,8.3-11.99,12.2-3.36,3.18-6.87,6.19-9.97,9.76-1.39,1.6-3.12,2.71-4.72,3.99-2.61,2.1-4.93,4.68-7.76,6.41-.66.4-1.24,1-2.03,1.06"/>
  <path class="cls-1" d="M256.88,76.72c-1.02-.05-1.48,1.04-2.11,1.64-5.15,4.98-10.23,10.09-15.34,15.13-6.22,6.14-12.46,12.25-18.69,18.38-4.06,3.99-8.1,7.99-12.16,11.98-6.23,6.13-12.46,12.25-18.69,18.37-4.06,3.99-8.05,8.07-12.18,11.95-1.76,1.65-3.22,3.8-5.38,4.83-1.17,2.24-3.27,3.31-4.73,5.19"/>
  <path class="cls-1" d="M316.55,149.96c-4.02,0-8.03-.04-12.05.02-2.18.03-4.35-.17-6.53-.28-3.14-.16-6.19.7-9.22,1.38-2.14.48-4.3.94-6.43,1.52-1.93.53-3.89,1.01-5.86,1.32-1.24.19-2.47.44-3.71.54-1.52.13-2.99.63-4.49.91-.82.15-1.7.31-2.49.37-3.1.22-6.23.47-9.34.05-3.35-.45-6.63-1.36-9.8-2.75-2.49-1.09-5.02-2.07-7.55-3.06-.42-.16-.9-.11-1.35-.15"/>
  <path class="cls-1" d="M234.59,149.69c-4.52-.11-9.02.2-13.51.59-3.1.26-6.13,1.23-9.13,2.3-3.75,1.34-7.56,2.44-11.25,4.01-2.85,1.22-5.45,3.01-8.09,4.7-2.95,1.89-6.04,3.18-9.35,3.89-2.51.54-5.03,1.16-7.55,1.49-3.28.43-6.59.57-9.91-.16-2.18-.48-4.37-.9-6.52-1.53-3.65-1.08-7.27-2.34-10.81-3.87-4.06-1.77-8.22-2.13-12.51-1.89-2.95.17-5.83.56-8.55,1.93-4.76,2.4-8.9,5.73-11.71,11.04-.28.54-.39,1.11-.34,1.73"/>
  <path class="cls-1" d="M73.82,157.95c-1.62-.13-3.08-.96-4.61-1.47-3.1-1.03-6.02-2.67-9.23-3.38-2.52-.56-5.03-.68-7.55-.56-1.19.06-2.41.13-3.61.28-2.22.27-4.35.95-6.52,1.43-3.4.75-6.77,1.68-10.13,2.64-2.44.7-4.86,1.41-7.32,1.97-2.27.51-4.54.84-6.87.56-2.76-.34-5.53-.64-8.21-1.51-2.69-.87-5.33-1.96-8.01-2.89-.62-.21-.81-1.21-1.57-1.09"/>
  <path class="cls-1" d="M224.34,92.44c-.33.75-.84,1.31-1.36,1.86-3.47,3.74-6.9,7.51-10.76,10.73-2.77,2.3-5.21,5.18-7.68,7.94-2.63,2.93-5.03,6.13-7.7,9-2.51,2.71-4.68,5.84-7.3,8.41-3.74,3.66-7.31,7.54-11.13,11.07-2.69,2.5-5.32,5.08-8.01,7.57-1.39,1.29-2.84,2.52-4.29,3.7-3.2,2.59-5.93,5.68-8.08,9.49-.32.56-.63,1.13-.56,1.86"/>
  <path class="cls-1" d="M134.95,37.97c-1.25.09-2.23.78-3.04,1.86-2.77,3.66-5.86,6.95-9.03,10.08-5.28,5.2-10.16,10.98-15.84,15.62-3.22,2.63-6.38,5.33-9.57,7.98-3.72,3.09-7.07,6.7-10.22,10.55-1.64,2.01-3.33,3.96-4.89,6.08-1.85,2.51-3.76,4.95-5.94,7.09-2.82,2.76-5.51,5.7-8.56,8.11"/>
  <path class="cls-1" d="M175.59,55.22c-1.17,1.31-2.3,2.65-3.49,3.93-2.32,2.47-4.72,4.82-7.18,7.08-2.21,2.02-4.35,4.17-6.42,6.38-3.93,4.2-7.71,8.58-11.91,12.42-3.34,3.06-6.6,6.26-9.74,9.64-2.98,3.22-5.8,6.65-8.97,9.64-1.88,1.78-3.81,3.45-5.66,5.28-1.92,1.91-3.91,3.72-5.84,5.61-.94.92-1.79,1.97-2.72,2.91-.39.4-.72.98-1.34.94"/>
  <path class="cls-1" d="M240.11,144.77c4.68-8.04,9.57-15.91,13.78-24.34,2.82-5.64,5.35-11.44,7.7-17.36,1.11-2.8,1.99-5.75,2.91-8.66.62-1.96.67-4.09.21-6.25-.28-1.28-.47-2.48-1.27-3.46-.62-.76-.97-1.77-1.12-2.79-.3-2.02-1.55-3.03-2.85-3.96-.43-.3-1.23-.68-1.22.63"/>
  <path class="cls-1" d="M151.72,155.02c-.37-.07-.85.22-1.11-.14-1.56-2.2-3.88-3.45-5.21-5.97-1.18-2.23-2.8-4.11-4.74-5.26-2.01-1.19-3.85-2.85-6.05-3.51-2.84-.86-5.7-1.57-8.66-1.66-3.22-.09-6.32.7-9.47,1.29-2.88.54-5.69,1.74-8.66,1.69-.43,0-.87.33-1.3.51"/>
  <path class="cls-1" d="M111.2,112.68c-.75.08-.71-.62-.92-1.19-1.62-4.37-4.2-7.44-8.31-8.41-2.05-.48-4.11-.64-6.19-.67-2.44-.02-4.89-.21-7.32-.11-6.03.27-11.77,1.83-16.88,5.84-.33.26-.65.49-1.02.65"/>
  <path class="cls-1" d="M176.61,47.7c.16-.95-.34-1.66-.69-2.39-.82-1.71-1.75-3.36-2.57-5.08-.99-2.09-2.55-3.31-4.41-3.96-1.77-.61-3.48-1.42-5.27-1.94-1.91-.56-3.84-.49-5.76-.57-1.72-.08-3.45.31-5.18.34-2.94.05-5.86.52-8.77.86-1.75.21-3.47.87-5.07,1.82"/>
  <path class="cls-1" d="M230.65,81.38c1.27-1.61,1.39-3.76,1.93-5.72.73-2.64-.04-5.04-.71-7.45-.25-.89-.46-1.77-.65-2.67-.67-3.17-2.79-4.91-4.69-6.97-2.51-2.72-5.67-3.53-8.71-4.72-2.08-.81-4.11-1.94-6.3-2.26-1.67-.25-3.37-.21-5.06-.3"/>
  <path class="cls-1" d="M111.64,160.08c-3.13-1.63-6.49-1.55-9.8-1.72-2.65-.13-5.2.73-7.77,1.31-3.21.72-6.38,1.79-9.68,1.72-1.05-.02-2.1-.16-3.16.02"/>
  <path class="cls-1" d="M108.94,30.92c-.71.03-1.21.54-1.69,1.07-1.67,1.85-3.36,3.66-4.76,5.83-.72,1.12-1.8,1.87-2.76,2.74-2.94,2.64-5.87,5.36-8.12,8.89-.84,1.33-1.94,2.33-2.83,3.58-.76,1.05-1.58,2.07-1.58,3.59"/>
  <path class="cls-1" d="M109.9,33.05c.73,1.51,2.21,1.92,3.23,3.04,1,1.1,2.07,2.12,2.78,3.5,1.25,2.4.91,4.41-.56,6.23-1,1.24-2.16,2.33-3.25,3.48-.56.59-1.15,1.12-1.68,1.74-1.96,2.29-4.57,3.54-6.58,5.79-.81.9-1.26,2.15-2.21,2.85-1.32.99-2.54,2.26-3.88,3.07-1.26.76-2.96,1.34-4.46-.11-1.02-.97-2.25-1.63-3.03-2.95-.09-.15-.22-.37-.33-.39-1.25-.13-1.8-1.29-2.48-2.28"/>
  <path class="cls-1" d="M98.58,37.31c-.95.3-1.58-.47-2.12-1.09-1.9-2.22-4.4-2.92-6.77-4-.41-.19-.69.15-1.07.02-.19.89.02,1.67.38,2.41,1.39,2.88,3.2,5.44,4.49,8.4.21.48.5.37.8.39"/>
  <path class="cls-2" d="M196.21,52.29c-1.84,1.14-3.34,2.84-4.81,4.5-3.14,3.53-6.63,6.54-9.94,9.81-2.45,2.42-4.96,4.78-7.42,7.2-3.13,3.09-6.23,6.22-9.35,9.31-2.47,2.45-4.94,4.9-7.43,7.32-2.43,2.37-4.95,4.61-7.29,7.09-2.26,2.39-4.63,4.63-6.9,7.02-3.94,4.15-7.86,8.3-11.99,12.2-3.36,3.18-6.87,6.19-9.97,9.76-1.39,1.6-3.12,2.71-4.72,3.99-2.61,2.1-4.93,4.68-7.76,6.41-.66.4-1.24,1-2.03,1.06"/>
  <path class="cls-2" d="M256.78,76.99c-1.02-.05-1.48,1.04-2.11,1.64-5.15,4.98-10.23,10.09-15.34,15.13-6.22,6.14-12.46,12.25-18.69,18.38-4.06,3.99-8.1,7.99-12.16,11.98-6.23,6.13-12.46,12.25-18.69,18.37-4.06,3.99-8.05,8.07-12.18,11.95-1.76,1.65-3.22,3.8-5.38,4.83-1.17,2.24-3.27,3.31-4.73,5.19"/>
  <path class="cls-2" d="M316.44,150.23c-4.02,0-8.03-.04-12.05.02-2.18.03-4.35-.17-6.53-.28-3.14-.16-6.19.7-9.22,1.38-2.14.48-4.3.94-6.43,1.52-1.93.53-3.89,1.01-5.86,1.32-1.24.19-2.47.44-3.71.54-1.52.13-2.99.63-4.49.91-.82.15-1.7.31-2.49.37-3.1.22-6.23.47-9.34.05-3.35-.45-6.63-1.36-9.8-2.75-2.49-1.09-5.02-2.07-7.55-3.06-.42-.16-.9-.11-1.35-.15"/>
  <path class="cls-2" d="M234.48,149.96c-4.52-.11-9.02.2-13.51.59-3.1.26-6.13,1.23-9.13,2.3-3.75,1.34-7.56,2.44-11.25,4.01-2.85,1.22-5.45,3.01-8.09,4.7-2.95,1.89-6.04,3.18-9.35,3.89-2.51.54-5.03,1.16-7.55,1.49-3.28.43-6.59.57-9.91-.16-2.18-.48-4.37-.9-6.52-1.53-3.65-1.08-7.27-2.34-10.81-3.87-4.06-1.77-8.22-2.13-12.51-1.89-2.95.17-5.83.56-8.55,1.93-4.76,2.4-8.9,5.73-11.71,11.04-.28.54-.39,1.11-.34,1.73"/>
  <path class="cls-2" d="M73.71,158.22c-1.62-.13-3.08-.96-4.61-1.47-3.1-1.03-6.02-2.67-9.23-3.38-2.52-.56-5.03-.68-7.55-.56-1.19.06-2.41.13-3.61.28-2.22.27-4.35.95-6.52,1.43-3.4.75-6.77,1.68-10.13,2.64-2.44.7-4.86,1.41-7.32,1.97-2.27.51-4.54.84-6.87.56-2.76-.34-5.53-.64-8.21-1.51-2.69-.87-5.33-1.96-8.01-2.89-.62-.21-.81-1.21-1.57-1.09"/>
  <path class="cls-2" d="M224.24,92.71c-.33.75-.84,1.31-1.36,1.86-3.47,3.74-6.9,7.51-10.76,10.73-2.77,2.3-5.21,5.18-7.68,7.94-2.63,2.93-5.03,6.13-7.7,9-2.51,2.71-4.68,5.84-7.3,8.41-3.74,3.66-7.31,7.54-11.13,11.07-2.69,2.5-5.32,5.08-8.01,7.57-1.39,1.29-2.84,2.52-4.29,3.7-3.2,2.59-5.93,5.68-8.08,9.49-.32.56-.63,1.13-.56,1.86"/>
  <path class="cls-2" d="M134.85,38.25c-1.25.09-2.23.78-3.04,1.86-2.77,3.66-5.86,6.95-9.03,10.08-5.28,5.2-10.16,10.98-15.84,15.62-3.22,2.63-6.38,5.33-9.57,7.98-3.72,3.09-7.07,6.7-10.22,10.55-1.64,2.01-3.33,3.96-4.89,6.08-1.85,2.51-3.76,4.95-5.94,7.09-2.82,2.76-5.51,5.7-8.56,8.11"/>
  <path class="cls-2" d="M175.49,55.49c-1.17,1.31-2.3,2.65-3.49,3.93-2.32,2.47-4.72,4.82-7.18,7.08-2.21,2.02-4.35,4.17-6.42,6.38-3.93,4.2-7.71,8.58-11.91,12.42-3.34,3.06-6.6,6.26-9.74,9.64-2.98,3.22-5.8,6.65-8.97,9.64-1.88,1.78-3.81,3.45-5.66,5.28-1.92,1.91-3.91,3.72-5.84,5.61-.94.92-1.79,1.97-2.72,2.91-.39.4-.72.98-1.34.94"/>
  <path class="cls-2" d="M240,145.03c4.68-8.04,9.57-15.91,13.78-24.34,2.82-5.64,5.35-11.44,7.7-17.36,1.11-2.8,1.99-5.75,2.91-8.66.62-1.96.67-4.09.21-6.25-.28-1.28-.47-2.48-1.27-3.46-.62-.76-.97-1.77-1.12-2.79-.3-2.02-1.55-3.03-2.85-3.96-.43-.3-1.23-.68-1.22.63"/>
  <path class="cls-2" d="M151.62,155.29c-.37-.07-.85.22-1.11-.14-1.56-2.2-3.88-3.45-5.21-5.97-1.18-2.23-2.8-4.11-4.74-5.26-2.01-1.19-3.85-2.85-6.05-3.51-2.84-.86-5.7-1.57-8.66-1.66-3.22-.09-6.32.7-9.47,1.29-2.88.54-5.69,1.74-8.66,1.69-.43,0-.87.33-1.3.51"/>
  <path class="cls-2" d="M111.09,112.94c-.75.08-.71-.62-.92-1.19-1.62-4.37-4.2-7.44-8.31-8.41-2.05-.48-4.11-.64-6.19-.67-2.44-.02-4.89-.21-7.32-.11-6.03.27-11.77,1.83-16.88,5.84-.33.26-.65.49-1.02.65"/>
  <path class="cls-2" d="M176.5,47.96c.16-.95-.34-1.66-.69-2.39-.82-1.71-1.75-3.36-2.57-5.08-.99-2.09-2.55-3.31-4.41-3.96-1.77-.61-3.48-1.42-5.27-1.94-1.91-.56-3.84-.49-5.76-.57-1.72-.08-3.45.31-5.18.34-2.94.05-5.86.52-8.77.86-1.75.21-3.47.87-5.07,1.82"/>
  <path class="cls-2" d="M230.54,81.65c1.27-1.61,1.39-3.76,1.93-5.72.73-2.64-.04-5.04-.71-7.45-.25-.89-.46-1.77-.65-2.67-.67-3.17-2.79-4.91-4.69-6.97-2.51-2.72-5.67-3.53-8.71-4.72-2.08-.81-4.11-1.94-6.3-2.26-1.67-.25-3.37-.21-5.06-.3"/>
  <path class="cls-2" d="M111.54,160.35c-3.13-1.63-6.49-1.55-9.8-1.72-2.65-.13-5.2.73-7.77,1.31-3.21.72-6.38,1.79-9.68,1.72-1.05-.02-2.1-.16-3.16.02"/>
  <path class="cls-2" d="M108.84,31.19c-.71.03-1.21.54-1.69,1.07-1.67,1.85-3.36,3.66-4.76,5.83-.72,1.12-1.8,1.87-2.76,2.74-2.94,2.64-5.87,5.36-8.12,8.89-.84,1.33-1.94,2.33-2.83,3.58-.76,1.05-1.58,2.07-1.58,3.59"/>
  <path class="cls-2" d="M109.79,33.32c.73,1.51,2.21,1.92,3.23,3.04,1,1.1,2.07,2.12,2.78,3.5,1.25,2.4.91,4.41-.56,6.23-1,1.24-2.16,2.33-3.25,3.48-.56.59-1.15,1.12-1.68,1.74-1.96,2.29-4.57,3.54-6.58,5.79-.81.9-1.26,2.15-2.21,2.85-1.32.99-2.54,2.26-3.88,3.07-1.26.76-2.96,1.34-4.46-.11-1.02-.97-2.25-1.63-3.03-2.95-.09-.15-.22-.37-.33-.39-1.25-.13-1.8-1.29-2.48-2.28"/>
  <path class="cls-2" d="M98.48,37.58c-.95.3-1.58-.47-2.12-1.09-1.9-2.22-4.4-2.92-6.77-4-.41-.19-.69.15-1.07.02-.19.89.02,1.67.38,2.41,1.39,2.88,3.2,5.44,4.49,8.4.21.48.5.37.8.39"/>
  <path class="cls-4" d="M106.15,57.07c1.36,1.49,2.75,2.96,4.15,4.41.24.24.65.24.88,0s.24-.64,0-.88c-1.41-1.45-2.79-2.92-4.15-4.41-.23-.25-.65-.23-.88,0-.25.25-.23.63,0,.88h0Z"/>
  <path class="cls-4" d="M110.75,52c1.36,1.49,2.75,2.96,4.15,4.41.24.24.65.24.88,0s.24-.64,0-.88c-1.41-1.45-2.79-2.92-4.15-4.41-.23-.25-.65-.23-.88,0-.25.25-.23.63,0,.88h0Z"/>
  <path class="cls-4" d="M140.64,89.94c1.32,3.51,3.68,6.54,6.79,8.63.67.45,1.3-.63.63-1.08-2.82-1.9-5.02-4.7-6.22-7.89-.28-.75-1.49-.42-1.21.33h0Z"/>
  <path class="cls-4" d="M146.63,85.07c1.32,3.51,3.68,6.54,6.79,8.63.67.45,1.3-.63.63-1.08-2.82-1.9-5.02-4.7-6.22-7.89-.28-.75-1.49-.42-1.21.33h0Z"/>
  <path class="cls-4" d="M193.32,125.86c1.17.94,2.24,2.01,3.13,3.22.44.59.83,1.2,1.19,1.84.16.29.83,1.25.53,1.58-.54.6.34,1.48.88.88.62-.69.44-1.56.07-2.33s-.81-1.51-1.3-2.21c-1.02-1.46-2.23-2.77-3.62-3.88-.26-.21-.63-.26-.88,0-.22.22-.26.67,0,.88h0Z"/>
  <path class="cls-4" d="M189.94,131.22c.22,1.06,1.01,1.81,1.7,2.58s1.22,1.72,1.51,2.74c.22.77,1.43.44,1.21-.33-.32-1.12-.87-2.15-1.61-3.04-.59-.71-1.4-1.34-1.6-2.28-.07-.33-.46-.52-.77-.44-.34.09-.51.44-.44.77h0Z"/>
</svg>