<?xml version="1.0" encoding="UTF-8"?>
<svg id="Layer_1" data-name="Layer 1" xmlns="http://www.w3.org/2000/svg" viewBox="0 0 433.81 419.6">
  <defs>
    <style>
      .cls-1 {
        stroke-width: .25px;
      }

      .cls-1, .cls-2 {
        fill: none;
      }

      .cls-1, .cls-2, .cls-3 {
        stroke: #fff;
        stroke-miterlimit: 10;
      }

      .cls-4 {
        stroke-width: 0px;
      }

      .cls-4, .cls-3 {
        fill: #fff;
      }
    </style>
  </defs>
  <g id="WTEXT">
    <g id="Sun">
      <path class="cls-3" d="M66.79,326.68c6.06,0,10.98-.68,14.77-2.05,7.17-2.61,10.76-7.47,10.76-14.57,0-4.15-1.78-7.36-5.34-9.63-3.56-2.21-9.15-4.18-16.77-5.88l-13.01-2.98c-12.79-2.95-21.64-6.17-26.53-9.63-8.29-5.8-12.43-14.86-12.43-27.18,0-11.25,4-20.6,12.02-28.04,8.01-7.44,19.77-11.16,35.29-11.16,12.96,0,24.01,3.51,33.16,10.52,9.15,7.02,13.95,17.2,14.39,30.55h-24.69c-.45-7.56-3.67-12.93-9.68-16.11-4-2.1-8.98-3.15-14.94-3.15-6.62,0-11.9,1.36-15.85,4.09-3.95,2.73-5.92,6.54-5.92,11.42,0,4.49,1.95,7.84,5.84,10.06,2.5,1.48,7.84,3.21,16.02,5.2l21.19,5.2c9.29,2.28,16.29,5.31,21.02,9.12,7.34,5.91,11.01,14.46,11.01,25.65s-4.3,21.01-12.89,28.59c-8.59,7.59-20.73,11.38-36.41,11.38s-28.61-3.74-37.79-11.21c-9.18-7.47-13.76-17.74-13.76-30.81h24.53c.78,5.74,2.31,10.03,4.59,12.87,4.17,5.17,11.32,7.76,21.44,7.76h0Z"/>
      <path class="cls-3" d="M192.51,331.71c-.22.29-.78,1.14-1.67,2.56s-1.95,2.67-3.17,3.75c-3.72,3.41-7.33,5.74-10.8,6.99-3.48,1.25-7.55,1.88-12.22,1.88-13.46,0-22.52-4.95-27.2-14.83-2.61-5.45-3.92-13.5-3.92-24.12v-56h24.36v56c0,5.28.61,9.26,1.84,11.93,2.17,4.72,6.42,7.07,12.76,7.07,8.12,0,13.68-3.35,16.68-10.06,1.56-3.63,2.33-8.44,2.33-14.4v-50.54h24.11v92.89h-23.11v-13.12h0Z"/>
      <path class="cls-3" d="M281.35,269.92c-8.06,0-13.6,3.5-16.6,10.48-1.56,3.7-2.33,8.41-2.33,14.15v50.28h-23.69v-92.72h22.94v13.55c3.06-4.77,5.95-8.21,8.68-10.31,4.89-3.75,11.09-5.62,18.6-5.62,9.4,0,17.08,2.52,23.06,7.54,5.98,5.03,8.97,13.36,8.97,25.01v62.56h-24.36v-56.5c0-4.89-.64-8.64-1.92-11.25-2.33-4.77-6.78-7.16-13.35-7.16Z"/>
    </g>
    <path class="cls-3" d="M424.42,335.44l-27.95,4.63-27.19-34.2-8.01,11.54,4.4,27.75-22.75,3.76-18.84-118.85,22.75-3.76,10.18,64.24,23.58-37.94,28.68-4.75-25.61,38.86,40.75,48.72h0Z"/>
    <g>
      <path class="cls-3" d="M41.34,398.92h-10.14v18.83h-9.6v-48.03h23.06c3.29.06,5.83.48,7.6,1.24,1.78.76,3.28,1.88,4.51,3.35,1.02,1.21,1.83,2.56,2.42,4.04.6,1.48.89,3.16.89,5.05,0,2.28-.56,4.52-1.69,6.73-1.13,2.21-2.99,3.76-5.58,4.68,2.17.89,3.71,2.16,4.61,3.8.9,1.64,1.36,4.15,1.36,7.51v3.23c0,2.2.08,3.68.26,4.47.26,1.24.85,2.15,1.79,2.74v1.2h-10.81c-.3-1.07-.51-1.92-.64-2.57-.26-1.35-.4-2.73-.41-4.14l-.06-4.47c-.04-3.06-.59-5.11-1.64-6.13-1.06-1.02-3.03-1.53-5.92-1.53h.01ZM47.31,390.19c1.95-.91,2.94-2.72,2.94-5.41,0-2.91-.94-4.87-2.84-5.86-1.07-.56-2.66-.85-4.78-.85h-11.42v12.9h11.13c2.21,0,3.87-.26,4.97-.78h0Z"/>
      <path class="cls-3" d="M97.71,419.09c-6.72,0-11.85-1.87-15.4-5.61-4.76-4.59-7.15-11.19-7.15-19.81s2.38-15.4,7.15-19.81c3.55-3.74,8.69-5.61,15.4-5.61s11.85,1.87,15.4,5.61c4.74,4.41,7.11,11.01,7.11,19.81s-2.37,15.23-7.11,19.81c-3.55,3.74-8.69,5.61-15.4,5.61ZM106.99,406.19c2.27-2.93,3.41-7.1,3.41-12.51s-1.14-9.55-3.43-12.5c-2.28-2.94-5.38-4.41-9.27-4.41s-7,1.47-9.31,4.4c-2.32,2.93-3.48,7.11-3.48,12.51s1.16,9.58,3.48,12.51,5.42,4.4,9.31,4.4,6.98-1.47,9.28-4.4h0Z"/>
      <path class="cls-3" d="M157.55,417.75h-21.31v-48.03h22.84c5.76.09,9.84,1.79,12.25,5.12,1.45,2.04,2.17,4.48,2.17,7.33s-.72,5.29-2.17,7.07c-.81,1-2,1.91-3.57,2.74,2.4.89,4.22,2.3,5.44,4.24s1.83,4.28,1.83,7.04-.7,5.4-2.1,7.65c-.89,1.5-2.01,2.76-3.35,3.78-1.51,1.18-3.29,1.98-5.34,2.41-2.05.43-4.28.65-6.68.65h0ZM162.2,387.45c1.28-.78,1.92-2.18,1.92-4.2,0-2.24-.85-3.71-2.55-4.43-1.47-.5-3.34-.75-5.61-.75h-10.33v10.59h11.55c2.06,0,3.74-.4,5.04-1.2h0ZM157.32,396.6h-11.71v12.81h11.55c2.06,0,3.67-.28,4.82-.85,2.08-1.04,3.13-3.04,3.13-5.99,0-2.5-1.01-4.22-3.03-5.15-1.13-.52-2.71-.79-4.75-.81h0Z"/>
      <path class="cls-3" d="M212.42,419.09c-6.72,0-11.85-1.87-15.4-5.61-4.76-4.59-7.15-11.19-7.15-19.81s2.38-15.4,7.15-19.81c3.55-3.74,8.69-5.61,15.4-5.61s11.85,1.87,15.4,5.61c4.74,4.41,7.11,11.01,7.11,19.81s-2.37,15.23-7.11,19.81c-3.55,3.74-8.69,5.61-15.4,5.61ZM221.69,406.19c2.27-2.93,3.41-7.1,3.41-12.51s-1.14-9.55-3.43-12.5c-2.28-2.94-5.38-4.41-9.27-4.41s-7,1.47-9.31,4.4-3.48,7.11-3.48,12.51,1.16,9.58,3.48,12.51c2.32,2.93,5.42,4.4,9.31,4.4s6.98-1.47,9.28-4.4h0Z"/>
      <path class="cls-3" d="M284.95,369.72v8.5h-14.06v39.53h-9.89v-39.53h-14.13v-8.5h38.08Z"/>
      <path class="cls-3" d="M298.29,369.72h9.76v48.03h-9.76v-48.03Z"/>
      <path class="cls-3" d="M358.74,414.17c-3.51,3.28-8,4.92-13.46,4.92-6.76,0-12.08-2.21-15.95-6.65-3.87-4.45-5.81-10.56-5.81-18.32,0-8.38,2.2-14.85,6.61-19.39,3.83-3.95,8.7-5.93,14.61-5.93,7.91,0,13.7,2.65,17.35,7.95,2.02,2.98,3.1,5.96,3.26,8.96h-9.83c-.64-2.3-1.46-4.04-2.46-5.21-1.79-2.09-4.43-3.13-7.95-3.13s-6.39,1.47-8.45,4.41c-2.06,2.94-3.09,7.11-3.09,12.5s1.09,9.42,3.27,12.1c2.18,2.68,4.95,4.03,8.31,4.03s6.07-1.15,7.88-3.46c1-1.24,1.83-3.1,2.49-5.57h9.73c-.85,5.24-3.02,9.49-6.5,12.77h0Z"/>
      <path class="cls-3" d="M398.17,410.81c2.32,0,4.2-.26,5.64-.78,2.74-1,4.11-2.86,4.11-5.57,0-1.59-.68-2.81-2.04-3.68-1.36-.85-3.5-1.6-6.41-2.25l-4.97-1.14c-4.89-1.13-8.27-2.36-10.14-3.68-3.17-2.21-4.75-5.68-4.75-10.39,0-4.3,1.53-7.88,4.6-10.72,3.06-2.85,7.56-4.27,13.49-4.27,4.95,0,9.18,1.34,12.68,4.02,3.5,2.68,5.33,6.58,5.5,11.68h-9.44c-.17-2.89-1.4-4.94-3.7-6.16-1.53-.8-3.43-1.2-5.71-1.2-2.53,0-4.55.52-6.06,1.56-1.51,1.04-2.27,2.5-2.27,4.36,0,1.72.74,3,2.23,3.84.95.56,3,1.23,6.12,1.98l8.1,1.98c3.55.87,6.23,2.03,8.04,3.49,2.81,2.26,4.21,5.53,4.21,9.81s-1.64,8.03-4.93,10.93c-3.28,2.9-7.93,4.35-13.92,4.35s-10.94-1.43-14.45-4.28c-3.51-2.86-5.27-6.78-5.27-11.78h9.38c.3,2.2.88,3.83,1.75,4.92,1.6,1.98,4.33,2.97,8.2,2.97h.01Z"/>
    </g>
  </g>
  <path class="cls-1" d="M269.01,29.06c-2.53,1.56-4.57,3.9-6.59,6.16-4.3,4.84-9.08,8.97-13.62,13.45-3.36,3.32-6.8,6.55-10.17,9.87-4.29,4.23-8.54,8.52-12.81,12.76-3.39,3.36-6.78,6.71-10.18,10.03-3.33,3.25-6.78,6.32-10,9.72-3.1,3.27-6.35,6.35-9.45,9.62-5.4,5.69-10.77,11.38-16.43,16.73-4.6,4.36-9.42,8.48-13.67,13.37-1.91,2.2-4.28,3.71-6.47,5.47-3.58,2.87-6.76,6.41-10.63,8.78-.91.55-1.7,1.37-2.78,1.45"/>
  <path class="cls-1" d="M352.03,62.91c-1.4-.07-2.03,1.42-2.89,2.24-7.06,6.83-14.02,13.82-21.03,20.74-8.53,8.42-17.08,16.79-25.61,25.19-5.56,5.47-11.11,10.95-16.66,16.42-8.54,8.4-17.08,16.79-25.61,25.18-5.56,5.47-11.04,11.06-16.7,16.37-2.41,2.27-4.41,5.21-7.37,6.62-1.6,3.08-4.49,4.54-6.48,7.11"/>
  <path class="cls-1" d="M433.81,163.28c-5.5,0-11.01-.06-16.51.02-2.99.04-5.97-.23-8.95-.38-4.3-.22-8.48.97-12.64,1.9-2.94.66-5.89,1.29-8.81,2.09-2.65.72-5.33,1.38-8.03,1.8-1.7.26-3.39.6-5.09.74-2.09.17-4.1.87-6.16,1.24-1.12.2-2.33.43-3.42.51-4.26.31-8.54.64-12.8.07-4.59-.62-9.08-1.86-13.44-3.77-3.42-1.5-6.88-2.84-10.34-4.19-.57-.22-1.23-.15-1.85-.2"/>
  <path class="cls-1" d="M321.48,162.91c-6.19-.15-12.36.28-18.52.8-4.26.35-8.4,1.69-12.52,3.16-5.14,1.83-10.36,3.34-15.42,5.5-3.9,1.67-7.47,4.12-11.09,6.44-4.04,2.59-8.27,4.36-12.81,5.33-3.45.74-6.9,1.59-10.35,2.04-4.5.59-9.03.78-13.58-.22-2.99-.65-5.99-1.24-8.93-2.1-5.01-1.48-9.96-3.2-14.81-5.3-5.57-2.42-11.27-2.93-17.14-2.59-4.04.23-7.99.77-11.72,2.64-6.52,3.29-12.2,7.85-16.05,15.13-.39.74-.54,1.52-.46,2.37"/>
  <path class="cls-1" d="M101.14,174.23c-2.22-.18-4.22-1.31-6.32-2.01-4.24-1.41-8.25-3.66-12.65-4.63-3.46-.77-6.9-.94-10.35-.76-1.64.08-3.3.18-4.95.38-3.04.37-5.96,1.31-8.93,1.97-4.66,1.03-9.28,2.31-13.89,3.62-3.34.96-6.66,1.94-10.04,2.7-3.11.7-6.22,1.16-9.41.77-3.79-.46-7.58-.88-11.25-2.07-3.68-1.2-7.3-2.68-10.97-3.96-.85-.29-1.11-1.66-2.15-1.49"/>
  <path class="cls-1" d="M307.43,84.44c-.45,1.02-1.16,1.79-1.86,2.55-4.76,5.12-9.45,10.29-14.75,14.7-3.79,3.16-7.14,7.1-10.52,10.88-3.6,4.01-6.9,8.4-10.55,12.34-3.45,3.71-6.42,8.01-10.01,11.53-5.12,5.01-10.02,10.33-15.26,15.17-3.69,3.42-7.28,6.96-10.97,10.38-1.91,1.77-3.89,3.46-5.89,5.08-4.39,3.55-8.13,7.79-11.08,13.01-.43.77-.87,1.55-.77,2.55"/>
  <path class="cls-1" d="M184.92,9.8c-1.71.13-3.05,1.07-4.17,2.55-3.8,5.01-8.03,9.53-12.38,13.82-7.24,7.13-13.93,15.05-21.71,21.41-4.41,3.6-8.74,7.3-13.12,10.94-5.1,4.23-9.69,9.18-14.01,14.45-2.25,2.75-4.56,5.43-6.7,8.33-2.53,3.44-5.16,6.79-8.14,9.72-3.86,3.79-7.55,7.81-11.73,11.12"/>
  <path class="cls-1" d="M240.62,33.44c-1.6,1.79-3.16,3.63-4.78,5.38-3.18,3.38-6.46,6.61-9.84,9.71-3.03,2.77-5.96,5.71-8.8,8.75-5.38,5.76-10.56,11.75-16.32,17.03-4.58,4.19-9.05,8.58-13.34,13.21-4.09,4.41-7.95,9.11-12.29,13.21-2.57,2.44-5.23,4.73-7.75,7.24-2.64,2.61-5.36,5.09-8,7.69-1.29,1.26-2.45,2.7-3.73,3.99-.54.55-.99,1.35-1.84,1.29"/>
  <path class="cls-1" d="M329.04,156.16c6.42-11.02,13.11-21.81,18.88-33.35,3.87-7.73,7.33-15.68,10.55-23.79,1.52-3.84,2.73-7.89,3.99-11.86.85-2.69.92-5.61.29-8.57-.38-1.75-.64-3.4-1.74-4.75-.85-1.04-1.32-2.42-1.53-3.82-.41-2.76-2.12-4.16-3.91-5.43-.58-.41-1.68-.94-1.67.87"/>
  <path class="cls-1" d="M207.91,170.21c-.51-.09-1.16.31-1.52-.2-2.14-3.01-5.32-4.73-7.14-8.18-1.61-3.06-3.84-5.63-6.5-7.21-2.75-1.63-5.28-3.9-8.29-4.82-3.89-1.17-7.81-2.16-11.87-2.27-4.42-.13-8.66.97-12.98,1.77-3.95.74-7.79,2.39-11.87,2.31-.59,0-1.19.45-1.78.7"/>
  <path class="cls-1" d="M152.37,112.18c-1.03.11-.97-.85-1.26-1.63-2.22-5.99-5.76-10.2-11.39-11.53-2.81-.66-5.63-.88-8.49-.91-3.34-.03-6.7-.29-10.03-.15-8.26.37-16.13,2.51-23.14,8.01-.45.35-.9.67-1.4.9"/>
  <path class="cls-1" d="M242.01,23.13c.22-1.3-.46-2.27-.95-3.27-1.13-2.35-2.4-4.6-3.52-6.96-1.36-2.86-3.49-4.54-6.04-5.43-2.42-.83-4.76-1.94-7.23-2.66-2.62-.77-5.26-.67-7.89-.78-2.35-.1-4.73.42-7.1.46-4.03.07-8.03.72-12.03,1.18-2.4.28-4.75,1.19-6.95,2.49"/>
  <path class="cls-1" d="M316.08,69.29c1.74-2.21,1.9-5.15,2.65-7.83,1-3.61-.06-6.91-.98-10.21-.34-1.22-.63-2.43-.89-3.66-.91-4.34-3.83-6.73-6.43-9.55-3.44-3.72-7.77-4.84-11.94-6.47-2.86-1.11-5.63-2.66-8.63-3.1-2.29-.34-4.62-.28-6.94-.41"/>
  <path class="cls-1" d="M152.98,177.15c-4.29-2.24-8.89-2.12-13.42-2.36-3.63-.18-7.12,1-10.65,1.79-4.4.98-8.74,2.46-13.26,2.36-1.44-.03-2.88-.22-4.33.03"/>
  <path class="cls-1" d="M149.28.13c-.97.05-1.66.74-2.31,1.47-2.28,2.54-4.6,5.02-6.52,8-.99,1.54-2.46,2.56-3.78,3.75-4.03,3.62-8.05,7.35-11.13,12.18-1.16,1.83-2.66,3.2-3.88,4.9-1.04,1.44-2.17,2.83-2.17,4.93"/>
  <path class="cls-1" d="M150.59,3.05c1,2.08,3.03,2.63,4.43,4.16,1.37,1.51,2.84,2.9,3.81,4.79,1.71,3.29,1.24,6.04-.77,8.54-1.38,1.7-2.96,3.19-4.46,4.77-.77.8-1.58,1.54-2.31,2.38-2.69,3.14-6.26,4.86-9.02,7.94-1.11,1.24-1.73,2.94-3.03,3.91-1.81,1.36-3.48,3.1-5.32,4.21-1.72,1.05-4.05,1.83-6.12-.15-1.39-1.33-3.08-2.24-4.15-4.05-.12-.2-.3-.51-.46-.53-1.71-.18-2.47-1.77-3.4-3.12"/>
  <path class="cls-1" d="M135.08,8.89c-1.3.41-2.17-.64-2.9-1.5-2.61-3.04-6.03-4.01-9.27-5.48-.56-.26-.95.2-1.46.02-.26,1.22.03,2.29.52,3.31,1.91,3.94,4.38,7.46,6.15,11.51.29.66.69.51,1.1.54"/>
  <path class="cls-2" d="M268.87,29.42c-2.53,1.56-4.57,3.9-6.59,6.16-4.3,4.84-9.08,8.97-13.62,13.45-3.36,3.32-6.8,6.55-10.17,9.87-4.29,4.23-8.54,8.52-12.81,12.76-3.39,3.36-6.78,6.71-10.18,10.03-3.33,3.25-6.78,6.32-10,9.72-3.1,3.27-6.35,6.35-9.45,9.62-5.4,5.69-10.77,11.38-16.43,16.73-4.6,4.36-9.42,8.48-13.67,13.37-1.91,2.2-4.28,3.71-6.47,5.47-3.58,2.87-6.76,6.41-10.63,8.78-.91.55-1.7,1.37-2.78,1.45"/>
  <path class="cls-2" d="M351.89,63.27c-1.4-.07-2.03,1.42-2.89,2.24-7.06,6.83-14.02,13.82-21.03,20.74-8.53,8.42-17.08,16.79-25.61,25.19-5.56,5.47-11.11,10.95-16.66,16.42-8.54,8.4-17.08,16.79-25.61,25.18-5.56,5.47-11.04,11.06-16.7,16.37-2.41,2.27-4.41,5.21-7.37,6.62-1.6,3.08-4.49,4.54-6.48,7.11"/>
  <path class="cls-2" d="M433.66,163.64c-5.5,0-11.01-.06-16.51.02-2.99.04-5.97-.23-8.95-.38-4.3-.22-8.48.97-12.64,1.9-2.94.66-5.89,1.29-8.81,2.09-2.65.72-5.33,1.38-8.03,1.8-1.7.26-3.39.6-5.09.74-2.09.17-4.1.87-6.16,1.24-1.12.2-2.33.43-3.42.51-4.26.31-8.54.64-12.8.07-4.59-.62-9.08-1.86-13.44-3.77-3.42-1.5-6.88-2.84-10.34-4.19-.57-.22-1.23-.15-1.85-.2"/>
  <path class="cls-2" d="M321.33,163.28c-6.19-.15-12.36.28-18.52.8-4.26.35-8.4,1.69-12.52,3.16-5.14,1.83-10.36,3.34-15.42,5.5-3.9,1.67-7.47,4.12-11.09,6.44-4.04,2.59-8.27,4.36-12.81,5.33-3.45.74-6.9,1.59-10.35,2.04-4.5.59-9.03.78-13.58-.22-2.99-.65-5.99-1.24-8.93-2.1-5.01-1.48-9.96-3.2-14.81-5.3-5.57-2.42-11.27-2.93-17.14-2.59-4.04.23-7.99.77-11.72,2.64-6.52,3.29-12.2,7.85-16.05,15.13-.39.74-.54,1.52-.46,2.37"/>
  <path class="cls-2" d="M100.99,174.59c-2.22-.18-4.22-1.31-6.32-2.01-4.24-1.41-8.25-3.66-12.65-4.63-3.46-.77-6.9-.94-10.35-.76-1.64.08-3.3.18-4.95.38-3.04.37-5.96,1.31-8.93,1.97-4.66,1.03-9.28,2.31-13.89,3.62-3.34.96-6.66,1.94-10.04,2.7-3.11.7-6.22,1.16-9.41.77-3.79-.46-7.58-.88-11.25-2.07-3.68-1.2-7.3-2.68-10.97-3.96-.85-.29-1.11-1.66-2.15-1.49"/>
  <path class="cls-2" d="M307.29,84.81c-.45,1.02-1.16,1.79-1.86,2.55-4.76,5.12-9.45,10.29-14.75,14.7-3.79,3.16-7.14,7.1-10.52,10.88-3.6,4.01-6.9,8.4-10.55,12.34-3.45,3.71-6.42,8.01-10.01,11.53-5.12,5.01-10.02,10.33-15.26,15.17-3.69,3.42-7.28,6.96-10.97,10.38-1.91,1.77-3.89,3.46-5.89,5.08-4.39,3.55-8.13,7.79-11.08,13.01-.43.77-.87,1.55-.77,2.55"/>
  <path class="cls-2" d="M184.78,10.18c-1.71.13-3.05,1.07-4.17,2.55-3.8,5.01-8.03,9.53-12.38,13.82-7.24,7.13-13.93,15.05-21.71,21.41-4.41,3.6-8.74,7.3-13.12,10.94-5.1,4.23-9.69,9.18-14.01,14.45-2.25,2.75-4.56,5.43-6.7,8.33-2.53,3.44-5.16,6.79-8.14,9.72-3.86,3.79-7.55,7.81-11.73,11.12"/>
  <path class="cls-2" d="M240.48,33.8c-1.6,1.79-3.16,3.63-4.78,5.38-3.18,3.38-6.46,6.61-9.84,9.71-3.03,2.77-5.96,5.71-8.8,8.75-5.38,5.76-10.56,11.75-16.32,17.03-4.58,4.19-9.05,8.58-13.34,13.21-4.09,4.41-7.95,9.11-12.29,13.21-2.57,2.44-5.23,4.73-7.75,7.24-2.64,2.61-5.36,5.09-8,7.69-1.29,1.26-2.45,2.7-3.73,3.99-.54.55-.99,1.35-1.84,1.29"/>
  <path class="cls-2" d="M328.89,156.52c6.42-11.02,13.11-21.81,18.88-33.35,3.87-7.73,7.33-15.68,10.55-23.79,1.52-3.84,2.73-7.89,3.99-11.86.85-2.69.92-5.61.29-8.57-.38-1.75-.64-3.4-1.74-4.75-.85-1.04-1.32-2.42-1.53-3.82-.41-2.76-2.12-4.16-3.91-5.43-.58-.41-1.68-.94-1.67.87"/>
  <path class="cls-2" d="M207.77,170.58c-.51-.09-1.16.31-1.52-.2-2.14-3.01-5.32-4.73-7.14-8.18-1.61-3.06-3.84-5.63-6.5-7.21-2.75-1.63-5.28-3.9-8.29-4.82-3.89-1.17-7.81-2.16-11.87-2.27-4.42-.13-8.66.97-12.98,1.77-3.95.74-7.79,2.39-11.87,2.31-.59,0-1.19.45-1.78.7"/>
  <path class="cls-2" d="M152.22,112.55c-1.03.11-.97-.85-1.26-1.63-2.22-5.99-5.76-10.2-11.39-11.53-2.81-.66-5.63-.88-8.49-.91-3.34-.03-6.7-.29-10.03-.15-8.26.37-16.13,2.51-23.14,8.01-.45.35-.9.67-1.4.9"/>
  <path class="cls-2" d="M241.87,23.49c.22-1.3-.46-2.27-.95-3.27-1.13-2.35-2.4-4.6-3.52-6.96-1.36-2.86-3.49-4.54-6.04-5.43-2.42-.83-4.76-1.94-7.23-2.66-2.62-.77-5.26-.67-7.89-.78-2.35-.1-4.73.42-7.1.46-4.03.07-8.03.72-12.03,1.18-2.4.28-4.75,1.19-6.95,2.49"/>
  <path class="cls-2" d="M315.93,69.66c1.74-2.21,1.9-5.15,2.65-7.83,1-3.61-.06-6.91-.98-10.21-.34-1.22-.63-2.43-.89-3.66-.91-4.34-3.83-6.73-6.43-9.55-3.44-3.72-7.77-4.84-11.94-6.47-2.86-1.11-5.63-2.66-8.63-3.1-2.29-.34-4.62-.28-6.94-.41"/>
  <path class="cls-2" d="M152.84,177.51c-4.29-2.24-8.89-2.12-13.42-2.36-3.63-.18-7.12,1-10.65,1.79-4.4.98-8.74,2.46-13.26,2.36-1.44-.03-2.88-.22-4.33.03"/>
  <path class="cls-2" d="M149.13.5c-.97.05-1.66.74-2.31,1.47-2.28,2.54-4.6,5.02-6.52,8-.99,1.54-2.46,2.56-3.78,3.75-4.03,3.62-8.05,7.35-11.13,12.18-1.16,1.83-2.66,3.2-3.88,4.9-1.04,1.44-2.17,2.83-2.17,4.93"/>
  <path class="cls-2" d="M150.44,3.42c1,2.08,3.03,2.63,4.43,4.16,1.37,1.51,2.84,2.9,3.81,4.79,1.71,3.29,1.24,6.04-.77,8.54-1.38,1.7-2.96,3.19-4.46,4.77-.77.8-1.58,1.54-2.31,2.38-2.69,3.14-6.26,4.86-9.02,7.94-1.11,1.24-1.73,2.94-3.03,3.91-1.81,1.36-3.48,3.1-5.32,4.21-1.72,1.05-4.05,1.83-6.12-.15-1.39-1.33-3.08-2.24-4.15-4.05-.12-.2-.3-.51-.46-.53-1.71-.18-2.47-1.77-3.4-3.12"/>
  <path class="cls-2" d="M134.94,9.26c-1.3.41-2.17-.64-2.9-1.5-2.61-3.04-6.03-4.01-9.27-5.48-.56-.26-.95.2-1.46.02-.26,1.22.03,2.29.52,3.31,1.91,3.94,4.38,7.46,6.15,11.51.29.66.69.51,1.1.54"/>
  <path class="cls-4" d="M145.62,35.8c1.86,2.05,3.76,4.06,5.69,6.05.56.58,1.45-.31.88-.88-1.93-1.99-3.83-4-5.69-6.05-.54-.6-1.43.29-.88.88h0Z"/>
  <path class="cls-4" d="M151.93,28.86c1.86,2.05,3.76,4.06,5.69,6.05.56.58,1.45-.31.88-.88-1.93-1.99-3.83-4-5.69-6.05-.54-.6-1.43.29-.88.88h0Z"/>
  <path class="cls-4" d="M192.94,80.96c1.79,4.75,4.99,8.86,9.2,11.7.67.45,1.3-.63.63-1.08-3.92-2.64-6.96-6.52-8.63-10.95-.28-.75-1.49-.42-1.21.33h0Z"/>
  <path class="cls-4" d="M201.16,74.28c1.79,4.75,4.99,8.86,9.2,11.7.67.45,1.3-.63.63-1.08-3.92-2.64-6.96-6.52-8.63-10.95-.28-.75-1.49-.42-1.21.33h0Z"/>
  <path class="cls-4" d="M265.08,130.09c1.61,1.3,3.09,2.79,4.32,4.46.6.81,1.14,1.65,1.63,2.53.3.53,1.23,1.85.69,2.45s.34,1.48.88.88c.78-.86.52-1.95.06-2.91-.51-1.05-1.11-2.06-1.78-3.02-1.38-1.98-3.04-3.76-4.92-5.27-.62-.5-1.51.38-.88.88h0Z"/>
  <path class="cls-4" d="M260.52,137.53c.3,1.41,1.35,2.41,2.28,3.43,1,1.11,1.72,2.42,2.13,3.85.22.77,1.43.44,1.21-.33-.43-1.49-1.15-2.87-2.15-4.06-.84-1-1.97-1.89-2.25-3.23-.17-.79-1.37-.45-1.21.33h0Z"/>
</svg>